<svg width="203" height="30" viewBox="0 0 203 30" fill="none" xmlns="http://www.w3.org/2000/svg">
<path d="M18.4626 0H5.69074C2.55143 0 0 2.6014 0 5.8022V24.1978C0 27.3956 2.55143 30 5.69074 30H18.4655C24.509 30 29.4237 24.986 29.4237 18.8272V11.1758C29.4237 5.01399 24.506 0 18.4626 0ZM26.4637 10.8342C25.6524 10.3786 24.7206 10.1209 23.733 10.1209H12.8776V5.8022C12.8776 4.78921 12.6219 3.83916 12.1722 3.00899H18.4626C22.7659 3.00899 26.2873 6.49151 26.4637 10.8372V10.8342ZM5.69074 3.00899H7.18691C8.69777 3.00899 9.92646 4.26174 9.92646 5.8022V10.1209H5.69074C4.69721 10.1209 3.76541 10.3816 2.95119 10.8402V5.8022C2.95119 4.26174 4.17987 3.00899 5.69074 3.00899ZM5.69074 26.991C4.17987 26.991 2.95119 25.7383 2.95119 24.1978V15.9231C2.95119 14.3826 4.17987 13.1299 5.69074 13.1299H9.92646V24.1978C9.92646 25.7383 8.69777 26.991 7.18691 26.991H5.69074ZM12.1722 26.991C12.6219 26.1608 12.8776 25.2108 12.8776 24.1978V17.9071C12.8923 17.9221 12.9041 17.9371 12.9188 17.952C14.5296 19.5944 15.773 20.0499 16.8694 20.4515C17.8276 20.8022 18.586 21.0809 19.7324 22.2497C20.8788 23.4186 21.1521 24.1918 21.4961 25.1688C21.6107 25.4955 21.7341 25.8402 21.887 26.2028C20.8464 26.7063 19.6854 26.991 18.4596 26.991H12.1692H12.1722ZM26.4725 18.8272C26.4725 20.961 25.6671 22.9031 24.3473 24.3596C24.3238 24.2907 24.3003 24.2248 24.2738 24.1528C23.8799 23.035 23.4331 21.7672 21.8194 20.1219C20.2056 18.4795 18.9652 18.024 17.8688 17.6224C16.9076 17.2717 16.1522 16.993 15.0058 15.8242C13.9505 14.7483 13.636 14.005 13.3244 13.1299H23.733C25.2438 13.1299 26.4725 14.3826 26.4725 15.9231V18.8242V18.8272Z" fill="white" fill-opacity="0.75"/>
<path d="M34.553 24.9979V5.19971H40.8492C43.1244 5.19971 44.9968 5.6043 46.4665 6.41649C47.9362 7.22868 49.0267 8.37353 49.741 9.85106C50.4524 11.3316 50.808 13.0908 50.808 15.1258C50.808 17.1607 50.4524 18.893 49.741 20.3705C49.0297 21.8511 47.9391 22.9899 46.4665 23.7931C44.9968 24.5933 43.1244 24.9949 40.8492 24.9949H34.553V24.9979ZM37.4953 22.4505H40.7405C42.4983 22.4505 43.8945 22.1597 44.9292 21.5723C45.9638 20.9879 46.6987 20.1488 47.1337 19.0549C47.5688 17.9609 47.7863 16.6513 47.7863 15.1228C47.7863 13.5943 47.5688 12.2517 47.1337 11.1488C46.6987 10.0459 45.9638 9.19771 44.9292 8.6043C43.8945 8.0109 42.4983 7.71419 40.7405 7.71419H37.4953V22.4475V22.4505Z" fill="white" fill-opacity="0.75"/>
<path d="M63.3329 13.3037C62.8597 12.4466 62.1748 11.7872 61.2812 11.3257C60.3847 10.8641 59.2882 10.6304 57.992 10.6304C56.9191 10.6304 55.9344 10.8252 55.0378 11.2118C54.1413 11.5984 53.4035 12.1558 52.8303 12.8811C52.2571 13.6064 51.925 14.4785 51.8339 15.4975H54.7439C54.8732 14.7063 55.2318 14.1069 55.8138 13.7023C56.3988 13.2977 57.1219 13.0939 57.992 13.0939C58.6386 13.0939 59.1942 13.2228 59.6557 13.4775C60.1172 13.7323 60.4728 14.1249 60.7256 14.6494C60.9755 15.1768 61.0989 15.8362 61.0989 16.6304H57.4923C56.2165 16.6304 55.129 16.8102 54.2354 17.1668C53.3388 17.5235 52.6598 18.033 52.1983 18.6923C51.7339 19.3546 51.5046 20.1459 51.5046 21.0689C51.5046 21.8422 51.6839 22.5524 52.0455 23.2058C52.407 23.8561 52.9714 24.3746 53.7386 24.7582C54.5058 25.1449 55.4611 25.3397 56.6104 25.3397C57.2013 25.3397 57.745 25.2677 58.233 25.1269C58.7239 24.986 59.153 24.7972 59.5234 24.5604C59.8938 24.3267 60.2201 24.042 60.5081 23.7123C60.7962 23.3826 61.0402 23.02 61.243 22.6244V24.998H64.0443V16.3726C64.0443 15.1858 63.8091 14.1608 63.3388 13.3037H63.3329ZM60.7521 20.2897C60.5757 20.7872 60.3229 21.2368 59.9878 21.6324C59.6557 22.028 59.2559 22.3427 58.7944 22.5794C58.3329 22.8162 57.8068 22.9331 57.213 22.9331C56.6751 22.9331 56.2107 22.8462 55.8109 22.6783C55.4111 22.5075 55.1084 22.2677 54.8967 21.956C54.6851 21.6474 54.5793 21.2757 54.5793 20.8412C54.5793 20.4066 54.6792 20.0529 54.882 19.7233C55.0878 19.3936 55.4288 19.1389 55.9079 18.959C56.387 18.7792 57.019 18.6893 57.795 18.6893H61.0402C61.0225 19.2557 60.9255 19.7892 60.7491 20.2867L60.7521 20.2897Z" fill="white" fill-opacity="0.75"/>
<path d="M70.9197 25.3366C69.7733 25.3366 68.7504 25.1388 67.8538 24.7432C66.9573 24.3476 66.2401 23.7901 65.7051 23.0739C65.1672 22.3576 64.8439 21.5274 64.7351 20.5863H67.7039C67.7951 20.9999 67.9802 21.3925 68.2595 21.7612C68.5358 22.1298 68.8973 22.4175 69.3412 22.6243C69.785 22.8311 70.3112 22.936 70.9226 22.936C71.534 22.936 72.022 22.8521 72.3923 22.6813C72.7627 22.5104 73.0361 22.2856 73.2095 22.0009C73.3858 21.7192 73.474 21.4165 73.474 21.0958C73.474 20.5863 73.3476 20.2147 73.1007 19.978C72.8509 19.7412 72.4864 19.5404 72.0043 19.3696C71.5223 19.1987 70.9491 19.0489 70.2847 18.917C69.7116 18.7851 69.1296 18.6263 68.5387 18.4375C67.9479 18.2487 67.407 18.0089 66.9162 17.7152C66.4253 17.4245 66.0373 17.0559 65.7522 16.6123C65.4641 16.1688 65.323 15.6083 65.323 14.931C65.323 14.1218 65.5317 13.3905 65.9462 12.7402C66.3636 12.0898 66.9632 11.5774 67.748 11.1997C68.5328 10.8221 69.4617 10.6333 70.5346 10.6333C72.1072 10.6333 73.3741 11.0109 74.3353 11.7632C75.2965 12.5184 75.852 13.5824 75.999 14.958H73.1683C73.0948 14.3556 72.8274 13.8791 72.3629 13.5314C71.9014 13.1838 71.2812 13.0069 70.5052 13.0069C69.7292 13.0069 69.2001 13.1688 68.8121 13.4864C68.4241 13.8071 68.2301 14.2117 68.2301 14.7032C68.2301 15.0059 68.3447 15.2787 68.5769 15.5244C68.8092 15.7702 69.1589 15.971 69.6322 16.1328C70.1025 16.2946 70.6434 16.4475 71.2548 16.6003C72.1807 16.8071 73.0331 17.0529 73.8209 17.3346C74.6057 17.6163 75.2436 18.0239 75.7344 18.5514C76.2253 19.0789 76.4693 19.8521 76.4693 20.8711C76.4869 21.7372 76.2694 22.5104 75.8168 23.1907C75.3641 23.8681 74.7203 24.3985 73.8885 24.7732C73.0566 25.1508 72.066 25.3396 70.9197 25.3396V25.3366Z" fill="white" fill-opacity="0.75"/>
<path d="M77.6567 24.9982V4.66357H80.5962V13.232H80.6226C81.0841 12.4228 81.722 11.7845 82.5362 11.3229C83.3504 10.8614 84.2646 10.6306 85.2816 10.6306C86.3545 10.6306 87.2922 10.8614 88.0976 11.3229C88.903 11.7845 89.5173 12.4887 89.9436 13.4298C90.3698 14.3739 90.5814 15.5427 90.5814 16.9363V24.9952H87.6684V17.218C87.6684 15.8993 87.4098 14.8953 86.8924 14.206C86.3751 13.5167 85.5697 13.1751 84.4792 13.1751C83.7384 13.1751 83.0741 13.3549 82.4833 13.7115C81.8925 14.0712 81.428 14.5837 81.0959 15.252C80.7637 15.9203 80.5962 16.7475 80.5962 17.7275V24.9952H77.6567V24.9982Z" fill="white" fill-opacity="0.75"/>
<path d="M99.7643 25.3369C99.0617 25.3369 98.4092 25.241 97.8095 25.0552C97.207 24.8664 96.6632 24.5847 96.1723 24.207C95.6814 23.8294 95.2699 23.3769 94.9377 22.8494L94.9113 24.9982H91.9983V4.66357H94.9377V13.1481C95.3816 12.4887 95.993 11.9043 96.769 11.3948C97.545 10.8854 98.5532 10.6306 99.7937 10.6306C101.143 10.6306 102.322 10.9513 103.33 11.5926C104.338 12.234 105.123 13.1091 105.687 14.224C106.252 15.3359 106.534 16.6006 106.534 18.0152C106.534 19.4298 106.257 20.6885 105.702 21.7914C105.146 22.8943 104.356 23.7605 103.33 24.3928C102.304 25.0252 101.116 25.3399 99.7643 25.3399V25.3369ZM99.2646 22.7355C100.114 22.7355 100.864 22.5377 101.51 22.1421C102.157 21.7465 102.663 21.189 103.021 20.4728C103.383 19.7565 103.562 18.9263 103.562 17.9853C103.562 17.0442 103.383 16.214 103.021 15.4977C102.66 14.7815 102.157 14.224 101.51 13.8284C100.864 13.4328 100.114 13.235 99.2646 13.235C98.4151 13.235 97.6831 13.4388 97.0188 13.8434C96.3516 14.248 95.8342 14.8054 95.4639 15.5127C95.0935 16.22 94.9083 17.0442 94.9083 17.9882C94.9083 18.9323 95.0935 19.7565 95.4639 20.4638C95.8342 21.1711 96.3516 21.7285 97.0188 22.1331C97.6831 22.5377 98.4327 22.7415 99.2646 22.7415V22.7355Z" fill="white" fill-opacity="0.75"/>
<path d="M114.188 25.3368C112.895 25.3368 111.719 25.0311 110.667 24.4167C109.611 23.8053 108.777 22.9452 108.156 21.8423C107.536 20.7394 107.228 19.4627 107.228 18.0091C107.228 16.5556 107.542 15.2249 108.171 14.119C108.8 13.0161 109.641 12.159 110.696 11.5446C111.751 10.9332 112.924 10.6245 114.218 10.6245C115.511 10.6245 116.71 10.9302 117.754 11.5446C118.797 12.156 119.626 13.0101 120.237 14.104C120.849 15.1979 121.152 16.4896 121.152 17.9792C121.152 19.4687 120.843 20.7364 120.223 21.8393C119.603 22.9422 118.768 23.7993 117.712 24.4137C116.657 25.0251 115.484 25.3338 114.191 25.3338L114.188 25.3368ZM114.188 22.7624C114.891 22.7624 115.543 22.5885 116.143 22.2379C116.742 21.8902 117.227 21.3568 117.598 20.6405C117.968 19.9242 118.153 19.0371 118.153 17.9822C118.153 16.9272 117.968 16.0401 117.598 15.3238C117.227 14.6075 116.74 14.0711 116.128 13.7114C115.517 13.3548 114.879 13.175 114.215 13.175C113.55 13.175 112.883 13.3548 112.272 13.7114C111.66 14.0711 111.166 14.6075 110.787 15.3238C110.408 16.0401 110.22 16.9272 110.22 17.9822C110.22 19.0371 110.408 19.9242 110.787 20.6405C111.166 21.3568 111.657 21.8902 112.257 22.2379C112.857 22.5855 113.5 22.7624 114.185 22.7624H114.188Z" fill="white" fill-opacity="0.75"/>
<path d="M133.7 13.3037C133.23 12.4466 132.545 11.7872 131.648 11.3257C130.752 10.8641 129.655 10.6304 128.362 10.6304C127.289 10.6304 126.304 10.8252 125.408 11.2118C124.511 11.5984 123.777 12.1558 123.203 12.8811C122.63 13.6064 122.298 14.4785 122.204 15.4975H125.117C125.246 14.7063 125.602 14.1069 126.187 13.7023C126.769 13.2977 127.495 13.0939 128.365 13.0939C129.012 13.0939 129.567 13.2228 130.029 13.4775C130.493 13.7323 130.849 14.1249 131.099 14.6494C131.349 15.1768 131.475 15.8362 131.475 16.6304H127.868C126.593 16.6304 125.505 16.8102 124.611 17.1668C123.715 17.5235 123.033 18.033 122.571 18.6923C122.11 19.3546 121.878 20.1459 121.878 21.0689C121.878 21.8422 122.06 22.5524 122.419 23.2058C122.78 23.8561 123.342 24.3746 124.112 24.7582C124.879 25.1449 125.834 25.3397 126.983 25.3397C127.574 25.3397 128.115 25.2677 128.606 25.1269C129.094 24.986 129.526 24.7972 129.896 24.5604C130.264 24.3267 130.593 24.042 130.881 23.7123C131.169 23.3826 131.413 23.02 131.616 22.6244V24.998H134.417V16.3726C134.417 15.1858 134.182 14.1608 133.709 13.3037H133.7ZM131.122 20.2897C130.946 20.7872 130.693 21.2368 130.358 21.6324C130.026 22.028 129.629 22.3427 129.165 22.5794C128.703 22.8162 128.177 22.9331 127.583 22.9331C127.048 22.9331 126.581 22.8462 126.184 22.6783C125.784 22.5075 125.481 22.2677 125.267 21.956C125.055 21.6474 124.949 21.2757 124.949 20.8412C124.949 20.4066 125.049 20.0529 125.255 19.7233C125.458 19.3936 125.799 19.1389 126.281 18.959C126.76 18.7792 127.389 18.6893 128.168 18.6893H131.413C131.396 19.2557 131.299 19.7892 131.119 20.2867L131.122 20.2897Z" fill="white" fill-opacity="0.75"/>
<path d="M143.867 10.6304V13.7982H143.036C142.424 13.7982 141.857 13.8701 141.331 14.011C140.802 14.1518 140.355 14.3886 139.984 14.7183C139.617 15.048 139.317 15.5065 139.097 16.0879C138.876 16.6753 138.765 17.3976 138.765 18.2667V24.998H135.825V10.969H138.738V13.6843C139.07 13.025 139.479 12.4675 139.958 12.015C140.437 11.5624 140.999 11.2208 141.636 10.984C142.274 10.7473 143.018 10.6304 143.87 10.6304H143.867Z" fill="white" fill-opacity="0.75"/>
<path d="M150.193 25.3369C148.862 25.3369 147.689 25.0162 146.672 24.3749C145.655 23.7335 144.858 22.8584 144.285 21.7435C143.712 20.6316 143.424 19.3789 143.424 17.9823C143.424 16.5857 143.709 15.3059 144.285 14.194C144.858 13.0822 145.663 12.21 146.698 11.5777C147.733 10.9453 148.917 10.6306 150.249 10.6306C151.339 10.6306 152.298 10.8464 153.121 11.281C153.944 11.7155 154.585 12.3179 155.049 13.0911V4.66357H157.988V24.9982H155.049L155.023 22.8194C154.746 23.272 154.385 23.6856 153.941 24.0632C153.497 24.4408 152.965 24.7465 152.345 24.9833C151.725 25.22 151.007 25.3369 150.196 25.3369H150.193ZM150.746 22.7355C151.595 22.7355 152.345 22.5347 152.991 22.1271C153.638 21.7225 154.144 21.1651 154.502 20.4578C154.864 19.7505 155.043 18.9263 155.043 17.9823C155.043 17.0382 154.864 16.211 154.502 15.4947C154.141 14.7785 153.632 14.221 152.977 13.8254C152.321 13.4298 151.575 13.232 150.743 13.232C149.911 13.232 149.138 13.4298 148.482 13.8254C147.827 14.221 147.318 14.7785 146.957 15.4947C146.595 16.211 146.416 17.0412 146.416 17.9823C146.416 18.9233 146.595 19.7535 146.957 20.4698C147.318 21.1861 147.827 21.7435 148.482 22.1391C149.138 22.5347 149.893 22.7325 150.743 22.7325L150.746 22.7355Z" fill="white" fill-opacity="0.75"/>
<path d="M159.817 24.9979V5.19971H162.756V22.6483H171.578V24.9949H159.817V24.9979Z" fill="white" fill-opacity="0.75"/>
<path d="M174.296 8.3409C173.741 8.3409 173.285 8.16707 172.924 7.81642C172.562 7.46877 172.383 7.02821 172.383 6.50074C172.383 5.97326 172.562 5.51173 172.924 5.17306C173.285 4.8344 173.741 4.66357 174.296 4.66357C174.852 4.66357 175.308 4.8344 175.669 5.17306C176.031 5.51173 176.21 5.95528 176.21 6.50074C176.21 7.04619 176.031 7.46577 175.669 7.81642C175.308 8.16407 174.852 8.3409 174.296 8.3409ZM172.824 24.9982V10.9723H175.763V24.9982H172.824Z" fill="white" fill-opacity="0.75"/>
<path d="M199.537 16.9361V24.9951H196.624V17.2478C196.624 15.9082 196.369 14.8982 195.86 14.2059C195.352 13.5195 194.59 13.1749 193.57 13.1749C192.888 13.1749 192.277 13.3487 191.742 13.6964C191.204 14.047 190.79 14.5565 190.493 15.2248C190.199 15.8962 190.049 16.7203 190.049 17.7004V24.9951H187.109V17.2478C187.109 15.9082 186.851 14.8982 186.33 14.2059C185.813 13.5195 185.055 13.1749 184.055 13.1749C183.388 13.1749 182.788 13.3547 182.253 13.7114C181.716 14.071 181.295 14.5835 180.992 15.2518C180.687 15.9231 180.534 16.7473 180.534 17.7273V24.9951H177.594V10.9661H180.452V12.9172C180.913 12.2009 181.51 11.6404 182.242 11.2358C182.974 10.8312 183.817 10.6274 184.778 10.6274C185.481 10.6274 186.119 10.7233 186.692 10.9122C187.265 11.101 187.777 11.3947 188.218 11.7903C188.661 12.1859 189.032 12.6744 189.329 13.2588C189.828 12.4496 190.499 11.8083 191.339 11.3347C192.18 10.8642 193.1 10.6274 194.099 10.6274C195.228 10.6274 196.201 10.8582 197.024 11.3227C197.847 11.7843 198.47 12.4886 198.897 13.4296C199.323 14.3737 199.534 15.5425 199.534 16.9361H199.537Z" fill="white" fill-opacity="0.75"/>
<path d="M197.533 7.48634V6.98584H199.464V7.48634H198.808V9.69513H198.188V7.48634H197.533ZM199.867 9.69513V6.98584H200.666L201.436 8.94888L202.259 6.98584H203V9.69513H202.433V7.77105L201.633 9.69513H201.204L200.419 7.76206V9.69513H199.87H199.867Z" fill="white" fill-opacity="0.75"/>
</svg>
