<svg xmlns="http://www.w3.org/2000/svg" width="57" height="24" viewBox="0 0 57 24" fill="none" id="svg-2012598973_773">
<path d="M5.47947 19.5L0.355469 5.052H5.31147L8.20947 14.712H8.29347L11.2125 5.052H15.9585L10.8555 19.5H5.47947Z" fill="#232835"></path>
<path d="M18.1072 19.5V5.052H22.7482V19.5H18.1072Z" fill="#232835"></path>
<path d="M32.3173 5.052C37.3713 5.052 39.8983 7.46 39.8983 12.276C39.8983 17.092 37.3713 19.5 32.3173 19.5H26.0593V5.052H32.3173ZM30.7003 16.035H32.2333C34.1793 16.035 35.1523 14.992 35.1523 12.906V11.646C35.1523 9.56 34.1793 8.517 32.2333 8.517H30.7003V16.035Z" fill="#232835"></path>
<path d="M51.1827 19.5L50.5737 17.463H45.5127L44.9037 19.5H40.1577L45.4287 5.052H50.8257L56.0967 19.5H51.1827ZM46.4787 14.229H49.6077L48.0957 9.084H48.0117L46.4787 14.229Z" fill="#232835"></path>
</svg>